{
  "accessors": [
    {
      "bufferView": 2,
      "componentType": 5126,
      "count": 3544,
      "max": [
        0.24987971782684326,
        0.19162991642951965,
        1.5785455703735352
      ],
      "min": [
        -0.24825361371040344,
        -0.06813056766986847,
        1.1255964040756226
      ],
      "type": "VEC3"
    },
    {
      "bufferView": 2,
      "byteOffset": 42528,
      "componentType": 5126,
      "count": 3544,
      "max": [
        0.9998154640197754,
        0.9999926090240479,
        0.9827036261558533
      ],
      "min": [
        -0.9999246597290039,
        -0.9996785521507263,
        -0.9988329410552979
      ],
      "type": "VEC3"
    },
    {
      "bufferView": 1,
      "componentType": 5126,
      "count": 3544,
      "max": [
        0.6696000099182129,
        0.9427000284194946
      ],
      "min": [
        0.0,
        0.0
      ],
      "type": "VEC2"
    },
    {
      "bufferView": 0,
      "componentType": 5125,
      "count": 5316,
      "type": "SCALAR"
    },
    {
      "bufferView": 2,
      "byteOffset": 85056,
      "componentType": 5126,
      "count": 5096,
      "max": [
        0.18576031923294067,
        0.26080477237701416,
        1.5609502792358398
      ],
      "min": [
        -0.18167822062969208,
        -0.07167527079582214,
        0.09664318710565567
      ],
      "type": "VEC3"
    },
    {
      "bufferView": 2,
      "byteOffset": 146208,
      "componentType": 5126,
      "count": 5096,
      "max": [
        0.999841570854187,
        0.9997087121009827,
        0.9844282865524292
      ],
      "min": [
        -0.9999701380729675,
        -0.9998627305030823,
        -0.9753087162971497
      ],
      "type": "VEC3"
    },
    {
      "bufferView": 1,
      "byteOffset": 28352,
      "componentType": 5126,
      "count": 5096,
      "max": [
        0.9789000153541565,
        0.9552000164985657
      ],
      "min": [
        0.03220000118017197,
        0.04490000009536743
      ],
      "type": "VEC2"
    },
    {
      "bufferView": 0,
      "byteOffset": 21264,
      "componentType": 5125,
      "count": 7644,
      "type": "SCALAR"
    },
    {
      "bufferView": 2,
      "byteOffset": 207360,
      "componentType": 5126,
      "count": 2528,
      "max": [
        0.1682521253824234,
        0.05062577500939369,
        1.457319974899292
      ],
      "min": [
        -0.15671950578689575,
        -0.07167527079582214,
        1.0086092948913574
      ],
      "type": "VEC3"
    },
    {
      "bufferView": 2,
      "byteOffset": 237696,
      "componentType": 5126,
      "count": 2528,
      "max": [
        0.9939687848091125,
        0.9362388253211975,
        0.9880126714706421
      ],
      "min": [
        -0.9984094500541687,
        -0.9999151229858398,
        -0.9797516465187073
      ],
      "type": "VEC3"
    },
    {
      "bufferView": 1,
      "byteOffset": 69120,
      "componentType": 5126,
      "count": 2528,
      "max": [
        0.5332000255584717,
        0.9746000170707703
      ],
      "min": [
        0.0544000007212162,
        0.04349999874830246
      ],
      "type": "VEC2"
    },
    {
      "bufferView": 0,
      "byteOffset": 51840,
      "componentType": 5125,
      "count": 3792,
      "type": "SCALAR"
    },
    {
      "bufferView": 2,
      "byteOffset": 268032,
      "componentType": 5126,
      "count": 3848,
      "max": [
        0.21856394410133362,
        0.2434844970703125,
        0.12808799743652344
      ],
      "min": [
        -0.12556599080562592,
        -0.13271310925483704,
        0.0010983943939208984
      ],
      "type": "VEC3"
    },
    {
      "bufferView": 2,
      "byteOffset": 314208,
      "componentType": 5126,
      "count": 3848,
      "max": [
        0.999839186668396,
        0.9995714426040649,
        0.9999796748161316
      ],
      "min": [
        -0.9996948838233948,
        -0.9950463771820068,
        -1.0
      ],
      "type": "VEC3"
    },
    {
      "bufferView": 1,
      "byteOffset": 89344,
      "componentType": 5126,
      "count": 3848,
      "max": [
        0.8460999727249146,
        0.7983999848365784
      ],
      "min": [
        0.02500000037252903,
        0.0364999994635582
      ],
      "type": "VEC2"
    },
    {
      "bufferView": 0,
      "byteOffset": 67008,
      "componentType": 5125,
      "count": 5784,
      "type": "SCALAR"
    },
    {
      "bufferView": 2,
      "byteOffset": 360384,
      "componentType": 5126,
      "count": 384,
      "max": [
        0.05954008176922798,
        -0.029483407735824585,
        1.717799425125122
      ],
      "min": [
        -0.05935424938797951,
        -0.057961635291576385,
        1.7047077417373657
      ],
      "type": "VEC3"
    },
    {
      "bufferView": 2,
      "byteOffset": 364992,
      "componentType": 5126,
      "count": 384,
      "max": [
        0.9137628674507141,
        0.12456735223531723,
        0.865655779838562
      ],
      "min": [
        -0.9151836633682251,
        -0.9562459588050842,
        -0.9766983389854431
      ],
      "type": "VEC3"
    },
    {
      "bufferView": 1,
      "byteOffset": 120128,
      "componentType": 5126,
      "count": 384,
      "max": [
        0.9656999707221985,
        0.6021999716758728
      ],
      "min": [
        0.025800000876188278,
        0.11640000343322754
      ],
      "type": "VEC2"
    },
    {
      "bufferView": 0,
      "byteOffset": 90144,
      "componentType": 5125,
      "count": 576,
      "type": "SCALAR"
    },
    {
      "bufferView": 2,
      "byteOffset": 369600,
      "componentType": 5126,
      "count": 256,
      "max": [
        0.04564480483531952,
        -0.023277707397937775,
        1.7170240879058838
      ],
      "min": [
        -0.04543931037187576,
        -0.04758439213037491,
        1.687831163406372
      ],
      "type": "VEC3"
    },
    {
      "bufferView": 2,
      "byteOffset": 372672,
      "componentType": 5126,
      "count": 256,
      "max": [
        0.9983096718788147,
        0.3145938217639923,
        0.9971592426300049
      ],
      "min": [
        -0.9983862638473511,
        -0.8786906003952026,
        -0.9962582588195801
      ],
      "type": "VEC3"
    },
    {
      "bufferView": 1,
      "byteOffset": 123200,
      "componentType": 5126,
      "count": 256,
      "max": [
        0.964900016784668,
        0.9715999960899353
      ],
      "min": [
        0.02759999968111515,
        0.03269999846816063
      ],
      "type": "VEC2"
    },
    {
      "bufferView": 0,
      "byteOffset": 92448,
      "componentType": 5125,
      "count": 384,
      "type": "SCALAR"
    },
    {
      "bufferView": 2,
      "byteOffset": 375744,
      "componentType": 5126,
      "count": 64,
      "max": [
        0.03778868541121483,
        -0.045867763459682465,
        1.7068171501159668
      ],
      "min": [
        -0.03756149113178253,
        -0.04806835204362869,
        1.6955766677856445
      ],
      "type": "VEC3"
    },
    {
      "bufferView": 2,
      "byteOffset": 376512,
      "componentType": 5126,
      "count": 64,
      "max": [
        0.39405447244644165,
        -0.9002653360366821,
        0.25343289971351624
      ],
      "min": [
        -0.39333775639533997,
        -0.97911536693573,
        -0.4153428375720978
      ],
      "type": "VEC3"
    },
    {
      "bufferView": 1,
      "byteOffset": 125248,
      "componentType": 5126,
      "count": 64,
      "max": [
        0.8014000058174133,
        0.8011999726295471
      ],
      "min": [
        0.19920000433921814,
        0.20200000703334808
      ],
      "type": "VEC2"
    },
    {
      "bufferView": 0,
      "byteOffset": 93984,
      "componentType": 5125,
      "count": 96,
      "type": "SCALAR"
    },
    {
      "bufferView": 2,
      "byteOffset": 377280,
      "componentType": 5126,
      "count": 24,
      "max": [
        0.034994542598724365,
        -0.047138698399066925,
        1.703963279724121
      ],
      "min": [
        -0.03475906327366829,
        -0.04806835204362869,
        1.6982553005218506
      ],
      "type": "VEC3"
    },
    {
      "bufferView": 2,
      "byteOffset": 377568,
      "componentType": 5126,
      "count": 24,
      "max": [
        0.11595810949802399,
        -0.9874609708786011,
        -0.04659482464194298
      ],
      "min": [
        -0.11564598232507706,
        -0.9921889901161194,
        -0.11046183109283447
      ],
      "type": "VEC3"
    },
    {
      "bufferView": 1,
      "byteOffset": 125760,
      "componentType": 5126,
      "count": 24,
      "max": [
        0.7538999915122986,
        0.753600001335144
      ],
      "min": [
        0.24699999392032623,
        0.2500999867916107
      ],
      "type": "VEC2"
    },
    {
      "bufferView": 0,
      "byteOffset": 94368,
      "componentType": 5125,
      "count": 36,
      "type": "SCALAR"
    },
    {
      "bufferView": 2,
      "byteOffset": 377856,
      "componentType": 5126,
      "count": 7356,
      "max": [
        0.07873103022575378,
        0.15942203998565674,
        1.830641508102417
      ],
      "min": [
        -0.07981819659471512,
        -0.050898678600788116,
        1.6177181005477905
      ],
      "type": "VEC3"
    },
    {
      "bufferView": 2,
      "byteOffset": 466128,
      "componentType": 5126,
      "count": 7356,
      "max": [
        0.9998569488525391,
        0.9996573328971863,
        0.9995938539505005
      ],
      "min": [
        -0.9999852776527405,
        -0.9913520812988281,
        -0.9651892185211182
      ],
      "type": "VEC3"
    },
    {
      "bufferView": 1,
      "byteOffset": 125952,
      "componentType": 5126,
      "count": 7356,
      "max": [
        0.9926000237464905,
        0.991599977016449
      ],
      "min": [
        0.007400000002235174,
        0.007400000002235174
      ],
      "type": "VEC2"
    },
    {
      "bufferView": 0,
      "byteOffset": 94512,
      "componentType": 5125,
      "count": 11034,
      "type": "SCALAR"
    },
    {
      "bufferView": 2,
      "byteOffset": 554400,
      "componentType": 5126,
      "count": 1696,
      "max": [
        0.25475257635116577,
        0.18832522630691528,
        1.7732796669006348
      ],
      "min": [
        -0.2522427439689636,
        -0.08042487502098083,
        0.7466812133789063
      ],
      "type": "VEC3"
    },
    {
      "bufferView": 2,
      "byteOffset": 574752,
      "componentType": 5126,
      "count": 1696,
      "max": [
        0.9982673525810242,
        0.9977675080299377,
        0.9960495233535767
      ],
      "min": [
        -0.994498074054718,
        -0.9949040412902832,
        -0.9890077710151672
      ],
      "type": "VEC3"
    },
    {
      "bufferView": 1,
      "byteOffset": 184800,
      "componentType": 5126,
      "count": 1696,
      "max": [
        0.9933000206947327,
        0.9732999801635742
      ],
      "min": [
        0.009600000455975533,
        0.011800000444054604
      ],
      "type": "VEC2"
    },
    {
      "bufferView": 0,
      "byteOffset": 138648,
      "componentType": 5125,
      "count": 2544,
      "type": "SCALAR"
    },
    {
      "bufferView": 2,
      "byteOffset": 595104,
      "componentType": 5126,
      "count": 504,
      "max": [
        0.180648535490036,
        0.24509599804878235,
        1.8451837301254272
      ],
      "min": [
        -0.180539071559906,
        -0.15932445228099823,
        1.7222108840942383
      ],
      "type": "VEC3"
    },
    {
      "bufferView": 2,
      "byteOffset": 601152,
      "componentType": 5126,
      "count": 504,
      "max": [
        0.9762194752693176,
        0.9865655303001404,
        0.9999972581863403
      ],
      "min": [
        -0.975913941860199,
        -0.9961479902267456,
        -0.9999767541885376
      ],
      "type": "VEC3"
    },
    {
      "bufferView": 1,
      "byteOffset": 198368,
      "componentType": 5126,
      "count": 504,
      "max": [
        0.9692000150680542,
        0.9966999888420105
      ],
      "min": [
        0.020899999886751175,
        0.007799999788403511
      ],
      "type": "VEC2"
    },
    {
      "bufferView": 0,
      "byteOffset": 148824,
      "componentType": 5125,
      "count": 756,
      "type": "SCALAR"
    }
  ],
  "asset": {
    "extras": {
      "author": "chroma3d (https://sketchfab.com/vendol21)",
      "license": "SKETCHFAB Standard (https://sketchfab.com/licenses)",
      "source": "https://sketchfab.com/3d-models/low-poly-farmer-man-08ccb9a009a34ca5916866149e5b51a3",
      "title": "Low Poly Farmer Man"
    },
    "generator": "Sketchfab-16.0.0",
    "version": "2.0"
  },
  "bufferViews": [
    {
      "buffer": 0,
      "byteLength": 151848,
      "name": "floatBufferViews",
      "target": 34963
    },
    {
      "buffer": 0,
      "byteLength": 202400,
      "byteOffset": 151848,
      "byteStride": 8,
      "name": "floatBufferViews",
      "target": 34962
    },
    {
      "buffer": 0,
      "byteLength": 607200,
      "byteOffset": 354248,
      "byteStride": 12,
      "name": "floatBufferViews",
      "target": 34962
    }
  ],
  "buffers": [
    {
      "byteLength": 961448,
      "uri": "scene.bin"
    }
  ],
  "materials": [
    {
      "doubleSided": true,
      "name": "FarmerManTshirt",
      "pbrMetallicRoughness": {
        "baseColorFactor": [
          0.8,
          0.8,
          0.8,
          1.0
        ],
        "metallicFactor": 0.0
      }
    },
    {
      "doubleSided": true,
      "name": "FarmerManBodySuit",
      "pbrMetallicRoughness": {
        "baseColorFactor": [
          0.0612454,
          0.250158,
          0.799103,
          1.0
        ],
        "metallicFactor": 0.0
      }
    },
    {
      "doubleSided": true,
      "name": "FarmerManButtons",
      "pbrMetallicRoughness": {
        "baseColorFactor": [
          0.0273196,
          0.0273196,
          0.0273196,
          1.0
        ],
        "metallicFactor": 0.0
      }
    },
    {
      "doubleSided": true,
      "name": "FarmerManShoes",
      "pbrMetallicRoughness": {
        "baseColorFactor": [
          0.0331033,
          0.0331033,
          0.0331033,
          1.0
        ],
        "metallicFactor": 0.0
      }
    },
    {
      "doubleSided": true,
      "name": "FarmerManEyebrows",
      "pbrMetallicRoughness": {
        "baseColorFactor": [
          0.0221727,
          0.0221727,
          0.0221727,
          1.0
        ],
        "metallicFactor": 0.0
      }
    },
    {
      "doubleSided": true,
      "name": "FarmerManEyesBalls",
      "pbrMetallicRoughness": {
        "baseColorFactor": [
          0.8,
          0.8,
          0.8,
          1.0
        ],
        "metallicFactor": 0.0,
        "roughnessFactor": 0.7838627534329802
      }
    },
    {
      "doubleSided": true,
      "name": "FarmerManEyesRound",
      "pbrMetallicRoughness": {
        "baseColorFactor": [
          0.0703579,
          0.0703579,
          0.0703579,
          1.0
        ],
        "metallicFactor": 0.0,
        "roughnessFactor": 0.9834285862264059
      }
    },
    {
      "doubleSided": true,
      "name": "FarmerManEyesSmall",
      "pbrMetallicRoughness": {
        "baseColorFactor": [
          0.234551,
          0.0781873,
          0.00604886,
          1.0
        ],
        "metallicFactor": 0.0,
        "roughnessFactor": 0.9762480773570288
      }
    },
    {
      "doubleSided": true,
      "name": "FarmerManHair",
      "pbrMetallicRoughness": {
        "baseColorFactor": [
          0.0953075,
          0.0168073,
          0.00273175,
          1.0
        ],
        "metallicFactor": 0.0
      }
    },
    {
      "doubleSided": true,
      "name": "FarmerManSkin",
      "pbrMetallicRoughness": {
        "baseColorFactor": [
          0.783537,
          0.597202,
          0.47932,
          1.0
        ],
        "metallicFactor": 0.0
      }
    },
    {
      "doubleSided": true,
      "name": "FarmerManHat",
      "pbrMetallicRoughness": {
        "baseColorFactor": [
          0.0343383,
          0.0343383,
          0.0343383,
          1.0
        ],
        "metallicFactor": 0.0
      }
    }
  ],
  "meshes": [
    {
      "name": "FarmerMan_FarmerManTshirt_0",
      "primitives": [
        {
          "attributes": {
            "NORMAL": 1,
            "POSITION": 0,
            "TEXCOORD_0": 2
          },
          "indices": 3,
          "material": 0,
          "mode": 4
        }
      ]
    },
    {
      "name": "FarmerMan_FarmerManBodySuit_0",
      "primitives": [
        {
          "attributes": {
            "NORMAL": 5,
            "POSITION": 4,
            "TEXCOORD_0": 6
          },
          "indices": 7,
          "material": 1,
          "mode": 4
        }
      ]
    },
    {
      "name": "FarmerMan_FarmerManButtons_0",
      "primitives": [
        {
          "attributes": {
            "NORMAL": 9,
            "POSITION": 8,
            "TEXCOORD_0": 10
          },
          "indices": 11,
          "material": 2,
          "mode": 4
        }
      ]
    },
    {
      "name": "FarmerMan_FarmerManShoes_0",
      "primitives": [
        {
          "attributes": {
            "NORMAL": 13,
            "POSITION": 12,
            "TEXCOORD_0": 14
          },
          "indices": 15,
          "material": 3,
          "mode": 4
        }
      ]
    },
    {
      "name": "FarmerMan_FarmerManEyebrows_0",
      "primitives": [
        {
          "attributes": {
            "NORMAL": 17,
            "POSITION": 16,
            "TEXCOORD_0": 18
          },
          "indices": 19,
          "material": 4,
          "mode": 4
        }
      ]
    },
    {
      "name": "FarmerMan_FarmerManEyesBalls_0",
      "primitives": [
        {
          "attributes": {
            "NORMAL": 21,
            "POSITION": 20,
            "TEXCOORD_0": 22
          },
          "indices": 23,
          "material": 5,
          "mode": 4
        }
      ]
    },
    {
      "name": "FarmerMan_FarmerManEyesRound_0",
      "primitives": [
        {
          "attributes": {
            "NORMAL": 25,
            "POSITION": 24,
            "TEXCOORD_0": 26
          },
          "indices": 27,
          "material": 6,
          "mode": 4
        }
      ]
    },
    {
      "name": "FarmerMan_FarmerManEyesSmall_0",
      "primitives": [
        {
          "attributes": {
            "NORMAL": 29,
            "POSITION": 28,
            "TEXCOORD_0": 30
          },
          "indices": 31,
          "material": 7,
          "mode": 4
        }
      ]
    },
    {
      "name": "FarmerMan_FarmerManHair_0",
      "primitives": [
        {
          "attributes": {
            "NORMAL": 33,
            "POSITION": 32,
            "TEXCOORD_0": 34
          },
          "indices": 35,
          "material": 8,
          "mode": 4
        }
      ]
    },
    {
      "name": "FarmerMan_FarmerManSkin_0",
      "primitives": [
        {
          "attributes": {
            "NORMAL": 37,
            "POSITION": 36,
            "TEXCOORD_0": 38
          },
          "indices": 39,
          "material": 9,
          "mode": 4
        }
      ]
    },
    {
      "name": "FarmerMan_FarmerManHat_0",
      "primitives": [
        {
          "attributes": {
            "NORMAL": 41,
            "POSITION": 40,
            "TEXCOORD_0": 42
          },
          "indices": 43,
          "material": 10,
          "mode": 4
        }
      ]
    }
  ],
  "nodes": [
    {
      "children": [
        1
      ],
      "matrix": [
        1.0,
        0.0,
        0.0,
        0.0,
        0.0,
        2.220446049250313e-16,
        -1.0,
        0.0,
        0.0,
        1.0,
        2.220446049250313e-16,
        0.0,
        0.0,
        0.0,
        0.0,
        1.0
      ],
      "name": "Sketchfab_model"
    },
    {
      "children": [
        2
      ],
      "matrix": [
        0.009999999776482582,
        0.0,
        0.0,
        0.0,
        0.0,
        0.0,
        0.009999999776482582,
        0.0,
        0.0,
        -0.009999999776482582,
        0.0,
        0.0,
        0.0,
        0.0,
        0.0,
        1.0
      ],
      "name": "f0910918d1fa4e4fb196be6bf02e1fd5.fbx"
    },
    {
      "children": [
        3
      ],
      "name": "RootNode"
    },
    {
      "children": [
        4,
        5,
        6,
        7,
        8,
        9,
        10,
        11,
        12,
        13,
        14
      ],
      "matrix": [
        100.0,
        0.0,
        0.0,
        0.0,
        0.0,
        -1.629206793918314e-05,
        -99.99999999999868,
        0.0,
        0.0,
        99.99999999999868,
        -1.629206793918314e-05,
        0.0,
        0.0,
        0.0,
        0.0,
        1.0
      ],
      "name": "FarmerMan"
    },
    {
      "mesh": 0,
      "name": "FarmerMan_FarmerManTshirt_0"
    },
    {
      "mesh": 1,
      "name": "FarmerMan_FarmerManBodySuit_0"
    },
    {
      "mesh": 2,
      "name": "FarmerMan_FarmerManButtons_0"
    },
    {
      "mesh": 3,
      "name": "FarmerMan_FarmerManShoes_0"
    },
    {
      "mesh": 4,
      "name": "FarmerMan_FarmerManEyebrows_0"
    },
    {
      "mesh": 5,
      "name": "FarmerMan_FarmerManEyesBalls_0"
    },
    {
      "mesh": 6,
      "name": "FarmerMan_FarmerManEyesRound_0"
    },
    {
      "mesh": 7,
      "name": "FarmerMan_FarmerManEyesSmall_0"
    },
    {
      "mesh": 8,
      "name": "FarmerMan_FarmerManHair_0"
    },
    {
      "mesh": 9,
      "name": "FarmerMan_FarmerManSkin_0"
    },
    {
      "mesh": 10,
      "name": "FarmerMan_FarmerManHat_0"
    }
  ],
  "scene": 0,
  "scenes": [
    {
      "name": "Sketchfab_Scene",
      "nodes": [
        0
      ]
    }
  ]
}
