{
  "accessors": [
    {
      "bufferView": 2,
      "componentType": 5126,
      "count": 909,
      "max": [
        0.04510800167918205,
        0.031939998269081116,
        0.06488300114870071
      ],
      "min": [
        -0.03613999858498573,
        -0.032639000564813614,
        -0.0002800000074785203
      ],
      "type": "VEC3"
    },
    {
      "bufferView": 2,
      "byteOffset": 10908,
      "componentType": 5126,
      "count": 909,
      "max": [
        0.9943651556968689,
        0.996301531791687,
        0.9976633191108704
      ],
      "min": [
        -0.9904645681381226,
        -0.999488890171051,
        -0.9993897676467896
      ],
      "type": "VEC3"
    },
    {
      "bufferView": 3,
      "componentType": 5126,
      "count": 909,
      "max": [
        0.9998472332954407,
        0.9914608001708984,
        0.9911561608314514,
        1.0
      ],
      "min": [
        -0.9361748695373535,
        -0.998896598815918,
        -0.9418187141418457,
        1.0
      ],
      "type": "VEC4"
    },
    {
      "bufferView": 1,
      "componentType": 5126,
      "count": 909,
      "max": [
        0.9736120104789734,
        0.984375
      ],
      "min": [
        0.015625,
        0.015625
      ],
      "type": "VEC2"
    },
    {
      "bufferView": 0,
      "componentType": 5125,
      "count": 4500,
      "type": "SCALAR"
    }
  ],
  "asset": {
    "extras": {
      "author": "inciprocal (https://sketchfab.com/inciprocal.com)",
      "license": "SKETCHFAB Standard (https://sketchfab.com/licenses)",
      "source": "https://sketchfab.com/3d-models/expired-mexican-avocado-514973abdd7b415897d2e776472965ba",
      "title": "Expired Mexican Avocado"
    },
    "generator": "Sketchfab-16.59.0",
    "version": "2.0"
  },
  "bufferViews": [
    {
      "buffer": 0,
      "byteLength": 18000,
      "name": "floatBufferViews",
      "target": 34963
    },
    {
      "buffer": 0,
      "byteLength": 7272,
      "byteOffset": 18000,
      "byteStride": 8,
      "name": "floatBufferViews",
      "target": 34962
    },
    {
      "buffer": 0,
      "byteLength": 21816,
      "byteOffset": 25272,
      "byteStride": 12,
      "name": "floatBufferViews",
      "target": 34962
    },
    {
      "buffer": 0,
      "byteLength": 14544,
      "byteOffset": 47088,
      "byteStride": 16,
      "name": "floatBufferViews",
      "target": 34962
    }
  ],
  "buffers": [
    {
      "byteLength": 61632,
      "uri": "scene.bin"
    }
  ],
  "extensionsRequired": [
    "KHR_materials_pbrSpecularGlossiness"
  ],
  "extensionsUsed": [
    "KHR_materials_pbrSpecularGlossiness"
  ],
  "images": [
    {
      "uri": "textures/fr_expiredAvocado_diffuse.jpeg"
    },
    {
      "uri": "textures/fr_expiredAvocado_specularGlossiness.png"
    },
    {
      "uri": "textures/fr_expiredAvocado_normal.jpeg"
    },
    {
      "uri": "textures/fr_expiredAvocado_occlusion.png"
    }
  ],
  "materials": [
    {
      "extensions": {
        "KHR_materials_pbrSpecularGlossiness": {
          "diffuseFactor": [
            1.0,
            1.0,
            1.0,
            1.0
          ],
          "diffuseTexture": {
            "index": 0
          },
          "glossinessFactor": 1.0,
          "specularFactor": [
            1.0,
            1.0,
            1.0
          ],
          "specularGlossinessTexture": {
            "index": 1
          }
        }
      },
      "name": "fr_expiredAvocado",
      "normalTexture": {
        "index": 2
      },
      "occlusionTexture": {
        "index": 3
      }
    }
  ],
  "meshes": [
    {
      "name": "Object_0",
      "primitives": [
        {
          "attributes": {
            "NORMAL": 1,
            "POSITION": 0,
            "TANGENT": 2,
            "TEXCOORD_0": 3
          },
          "indices": 4,
          "material": 0,
          "mode": 4
        }
      ]
    }
  ],
  "nodes": [
    {
      "children": [
        1
      ],
      "matrix": [
        -0.17574551701545715,
        -0.8623808026313781,
        -0.4747766554355623,
        0.0,
        0.9798598289489746,
        -0.1996866911649704,
        -3.2189510860480173e-16,
        0.0,
        -0.09480658173561096,
        -0.4652145802974703,
        0.8801063299179076,
        0.0,
        0.0,
        0.0,
        0.0,
        1.0
      ],
      "name": "Sketchfab_model"
    },
    {
      "children": [
        2
      ],
      "name": "fr_expiredAvocado.obj.cleaner.materialmerger.gles"
    },
    {
      "mesh": 0,
      "name": "Object_2"
    }
  ],
  "samplers": [
    {
      "magFilter": 9729,
      "minFilter": 9987,
      "wrapS": 10497,
      "wrapT": 10497
    }
  ],
  "scene": 0,
  "scenes": [
    {
      "name": "Sketchfab_Scene",
      "nodes": [
        0
      ]
    }
  ],
  "textures": [
    {
      "sampler": 0,
      "source": 0
    },
    {
      "sampler": 0,
      "source": 1
    },
    {
      "sampler": 0,
      "source": 2
    },
    {
      "sampler": 0,
      "source": 3
    }
  ]
}
