{
  "accessors": [
    {
      "bufferView": 2,
      "componentType": 5126,
      "count": 652,
      "max": [
        3.1656253337860107,
        2.9009664058685303,
        0.5685029029846191
      ],
      "min": [
        -3.1656253337860107,
        -1.0004273653030396,
        -0.8927277326583862
      ],
      "type": "VEC3"
    },
    {
      "bufferView": 2,
      "byteOffset": 7824,
      "componentType": 5126,
      "count": 652,
      "max": [
        0.9969223141670227,
        0.9290217161178589,
        0.9863561391830444
      ],
      "min": [
        -0.9969223141670227,
        -0.9717003703117371,
        -0.938476026058197
      ],
      "type": "VEC3"
    },
    {
      "bufferView": 1,
      "componentType": 5126,
      "count": 652,
      "max": [
        0.7500001192092896,
        0.875
      ],
      "min": [
        0.27588754892349243,
        0.3749995231628418
      ],
      "type": "VEC2"
    },
    {
      "bufferView": 0,
      "componentType": 5125,
      "count": 948,
      "type": "SCALAR"
    },
    {
      "bufferView": 2,
      "byteOffset": 15648,
      "componentType": 5126,
      "count": 62,
      "max": [
        0.5878362655639648,
        -0.005357213318347931,
        -0.10525727272033691
      ],
      "min": [
        -0.5878362655639648,
        -1.0231800079345703,
        -1.3933792114257813
      ],
      "type": "VEC3"
    },
    {
      "bufferView": 2,
      "byteOffset": 16392,
      "componentType": 5126,
      "count": 62,
      "max": [
        0.9948720335960388,
        0.17435209453105927,
        0.37345683574676514
      ],
      "min": [
        -0.9948720335960388,
        -0.8230500221252441,
        -0.385457843542099
      ],
      "type": "VEC3"
    },
    {
      "bufferView": 1,
      "byteOffset": 5216,
      "componentType": 5126,
      "count": 62,
      "max": [
        0.3750000596046448,
        0.7500001192092896
      ],
      "min": [
        0.24999967217445374,
        0.49999934434890747
      ],
      "type": "VEC2"
    },
    {
      "bufferView": 0,
      "byteOffset": 3792,
      "componentType": 5125,
      "count": 66,
      "type": "SCALAR"
    },
    {
      "bufferView": 2,
      "byteOffset": 17136,
      "componentType": 5126,
      "count": 108,
      "max": [
        0.2707589566707611,
        -0.6144327521324158,
        0.15486454963684082
      ],
      "min": [
        -0.2707589566707611,
        -1.5759861469268799,
        -0.23061394691467285
      ],
      "type": "VEC3"
    },
    {
      "bufferView": 2,
      "byteOffset": 18432,
      "componentType": 5126,
      "count": 108,
      "max": [
        0.9527186751365662,
        -0.03267645835876465,
        0.7662734985351563
      ],
      "min": [
        -0.9527187347412109,
        -0.5349183678627014,
        -0.6807172894477844
      ],
      "type": "VEC3"
    },
    {
      "bufferView": 1,
      "byteOffset": 5712,
      "componentType": 5126,
      "count": 108,
      "max": [
        0.6250001788139343,
        0.875
      ],
      "min": [
        0.24999982118606567,
        0.6337413787841797
      ],
      "type": "VEC2"
    },
    {
      "bufferView": 0,
      "byteOffset": 4056,
      "componentType": 5125,
      "count": 156,
      "type": "SCALAR"
    },
    {
      "bufferView": 2,
      "byteOffset": 19728,
      "componentType": 5126,
      "count": 256,
      "max": [
        0.6796447038650513,
        2.568645715713501,
        -0.3911490738391876
      ],
      "min": [
        -0.6796447038650513,
        -0.5327896475791931,
        -1.9341892004013062
      ],
      "type": "VEC3"
    },
    {
      "bufferView": 2,
      "byteOffset": 22800,
      "componentType": 5126,
      "count": 256,
      "max": [
        0.9940559267997742,
        0.9068206548690796,
        0.5350903272628784
      ],
      "min": [
        -0.9940559267997742,
        -0.8867376446723938,
        -0.9772558808326721
      ],
      "type": "VEC3"
    },
    {
      "bufferView": 1,
      "byteOffset": 6576,
      "componentType": 5126,
      "count": 256,
      "max": [
        0.4358176589012146,
        0.5000004172325134
      ],
      "min": [
        0.24999967217445374,
        0.3989538252353668
      ],
      "type": "VEC2"
    },
    {
      "bufferView": 0,
      "byteOffset": 4680,
      "componentType": 5125,
      "count": 360,
      "type": "SCALAR"
    },
    {
      "bufferView": 2,
      "byteOffset": 25872,
      "componentType": 5126,
      "count": 508,
      "max": [
        0.40204495191574097,
        0.8725370168685913,
        -1.9165786504745483
      ],
      "min": [
        -0.40204495191574097,
        0.37349700927734375,
        -2.4561829566955566
      ],
      "type": "VEC3"
    },
    {
      "bufferView": 2,
      "byteOffset": 31968,
      "componentType": 5126,
      "count": 508,
      "max": [
        0.9984323978424072,
        0.9939666390419006,
        0.9947279691696167
      ],
      "min": [
        -0.9984323978424072,
        -0.9990949034690857,
        -0.9998283982276917
      ],
      "type": "VEC3"
    },
    {
      "bufferView": 1,
      "byteOffset": 8624,
      "componentType": 5126,
      "count": 508,
      "max": [
        0.28674888610839844,
        0.5000003576278687
      ],
      "min": [
        0.24999994039535522,
        0.49999985098838806
      ],
      "type": "VEC2"
    },
    {
      "bufferView": 0,
      "byteOffset": 6120,
      "componentType": 5125,
      "count": 768,
      "type": "SCALAR"
    }
  ],
  "asset": {
    "extras": {
      "author": "assetfactory (https://sketchfab.com/assetfactory)",
      "license": "SKETCHFAB Standard (https://sketchfab.com/licenses)",
      "source": "https://sketchfab.com/3d-models/lowpoly-origami-bird-f2b357dc313b4a16891b34354a681b2f",
      "title": "Lowpoly origami bird"
    },
    "generator": "Sketchfab-16.33.0",
    "version": "2.0"
  },
  "bufferViews": [
    {
      "buffer": 0,
      "byteLength": 9192,
      "name": "floatBufferViews",
      "target": 34963
    },
    {
      "buffer": 0,
      "byteLength": 12688,
      "byteOffset": 9192,
      "byteStride": 8,
      "name": "floatBufferViews",
      "target": 34962
    },
    {
      "buffer": 0,
      "byteLength": 38064,
      "byteOffset": 21880,
      "byteStride": 12,
      "name": "floatBufferViews",
      "target": 34962
    }
  ],
  "buffers": [
    {
      "byteLength": 59944,
      "uri": "scene.bin"
    }
  ],
  "materials": [
    {
      "doubleSided": true,
      "name": "Blue",
      "pbrMetallicRoughness": {
        "baseColorFactor": [
          0.111148,
          0.239506,
          0.8,
          1.0
        ],
        "metallicFactor": 0.0,
        "roughnessFactor": 0.9434979708706053
      }
    },
    {
      "doubleSided": true,
      "name": "Yellow",
      "pbrMetallicRoughness": {
        "baseColorFactor": [
          0.8,
          0.664737,
          0.022423,
          1.0
        ],
        "metallicFactor": 0.0,
        "roughnessFactor": 0.8552998277530985
      }
    },
    {
      "doubleSided": true,
      "name": "Black",
      "pbrMetallicRoughness": {
        "baseColorFactor": [
          0.00802319,
          0.00802319,
          0.00749903,
          1.0
        ],
        "metallicFactor": 0.0,
        "roughnessFactor": 0.998214422430724
      }
    },
    {
      "doubleSided": true,
      "name": "White",
      "pbrMetallicRoughness": {
        "baseColorFactor": [
          0.863157,
          0.83077,
          0.775822,
          1.0
        ],
        "metallicFactor": 0.0,
        "roughnessFactor": 0.813581644433688
      }
    },
    {
      "doubleSided": true,
      "name": "Pink",
      "pbrMetallicRoughness": {
        "baseColorFactor": [
          0.8,
          0.463962,
          0.573833,
          1.0
        ],
        "metallicFactor": 0.0,
        "roughnessFactor": 0.8785062953212363
      }
    }
  ],
  "meshes": [
    {
      "name": "Cube.001_Blue_0",
      "primitives": [
        {
          "attributes": {
            "NORMAL": 1,
            "POSITION": 0,
            "TEXCOORD_0": 2
          },
          "indices": 3,
          "material": 0,
          "mode": 4
        }
      ]
    },
    {
      "name": "Cube.001_Yellow_0",
      "primitives": [
        {
          "attributes": {
            "NORMAL": 5,
            "POSITION": 4,
            "TEXCOORD_0": 6
          },
          "indices": 7,
          "material": 1,
          "mode": 4
        }
      ]
    },
    {
      "name": "Cube.001_Black_0",
      "primitives": [
        {
          "attributes": {
            "NORMAL": 9,
            "POSITION": 8,
            "TEXCOORD_0": 10
          },
          "indices": 11,
          "material": 2,
          "mode": 4
        }
      ]
    },
    {
      "name": "Cube.001_White_0",
      "primitives": [
        {
          "attributes": {
            "NORMAL": 13,
            "POSITION": 12,
            "TEXCOORD_0": 14
          },
          "indices": 15,
          "material": 3,
          "mode": 4
        }
      ]
    },
    {
      "name": "Cube.001_Pink_0",
      "primitives": [
        {
          "attributes": {
            "NORMAL": 17,
            "POSITION": 16,
            "TEXCOORD_0": 18
          },
          "indices": 19,
          "material": 4,
          "mode": 4
        }
      ]
    }
  ],
  "nodes": [
    {
      "children": [
        1
      ],
      "matrix": [
        1.0,
        0.0,
        0.0,
        0.0,
        0.0,
        2.220446049250313e-16,
        -1.0,
        0.0,
        0.0,
        1.0,
        2.220446049250313e-16,
        0.0,
        0.0,
        0.0,
        0.0,
        1.0
      ],
      "name": "Sketchfab_model"
    },
    {
      "children": [
        2
      ],
      "matrix": [
        0.009999999776482582,
        0.0,
        0.0,
        0.0,
        0.0,
        0.0,
        0.009999999776482582,
        0.0,
        0.0,
        -0.009999999776482582,
        0.0,
        0.0,
        0.0,
        0.0,
        0.0,
        1.0
      ],
      "name": "Origami_Bird.fbx"
    },
    {
      "children": [
        3
      ],
      "name": "RootNode"
    },
    {
      "children": [
        4,
        5,
        6,
        7,
        8
      ],
      "matrix": [
        44.97468566894531,
        0.0,
        0.0,
        0.0,
        0.0,
        -7.327306344618634e-06,
        -44.974685668944716,
        0.0,
        0.0,
        44.974685668944716,
        -7.327306344618634e-06,
        0.0,
        0.0,
        110.439453125,
        0.0,
        1.0
      ],
      "name": "Cube.001"
    },
    {
      "mesh": 0,
      "name": "Cube.001_Blue_0"
    },
    {
      "mesh": 1,
      "name": "Cube.001_Yellow_0"
    },
    {
      "mesh": 2,
      "name": "Cube.001_Black_0"
    },
    {
      "mesh": 3,
      "name": "Cube.001_White_0"
    },
    {
      "mesh": 4,
      "name": "Cube.001_Pink_0"
    }
  ],
  "scene": 0,
  "scenes": [
    {
      "name": "Sketchfab_Scene",
      "nodes": [
        0
      ]
    }
  ]
}
